<svg xmlns="http://www.w3.org/2000/svg" viewBox="0 0 64 64" width="64" height="64">
  <defs>
    <linearGradient id="favGrad" x1="0%" y1="0%" x2="100%" y2="100%">
      <stop offset="0%" stop-color="#00F2FE" />
      <stop offset="50%" stop-color="#4FACFE" />
      <stop offset="100%" stop-color="#6366F1" />
    </linearGradient>
    <filter id="favGlow" x="-20%" y="-20%" width="140%" height="140%">
      <feGaussianBlur stdDeviation="3" result="blur" />
      <feComposite in="SourceGraphic" in2="blur" operator="over" />
    </filter>
  </defs>
  <rect width="64" height="64" rx="16" fill="#080B10" />
  <rect x="2" y="2" width="60" height="60" rx="14" fill="none" stroke="url(#favGrad)" stroke-width="1.5" stroke-opacity="0.6" />
  <g filter="url(#favGlow)">
    <path d="M18 20 L27 44 L31 44 L40 20 L35 20 L29 37 L23 20 Z" fill="url(#favGrad)" />
    <path d="M44 26 C41 24 37 24 35 26 C33 28 34 31 37 32 C41 33 46 34 46 39 C46 43 42 45 37 45 C32 45 28 43 27 40 L31 37 C32 39 34 41 37 41 C39 41 41 40 41 38 C41 36 39 35 36 34 C32 33 28 31 28 27 C28 23 32 21 36 21 C40 21 43 23 45 24 Z" fill="#FFFFFF" fill-opacity="0.9" />
  </g>
</svg>
